<svg width="54" height="54" viewBox="0 0 54 54" fill="none" xmlns="http://www.w3.org/2000/svg">
<path d="M48.0193 0.600586H6.19598C4.6834 0.600586 3.23277 1.20145 2.16322 2.27101C1.09367 3.34056 0.492798 4.79119 0.492798 6.30376L0.492798 48.1271C0.492798 49.6396 1.09367 51.0903 2.16322 52.1598C3.23277 53.2294 4.6834 53.8302 6.19598 53.8302H22.5035V35.7334H15.0181V27.2154H22.5035V20.7233C22.5035 13.3389 26.8997 9.25991 33.633 9.25991C36.8577 9.25991 40.2297 9.83498 40.2297 9.83498V17.0828H36.5143C32.8536 17.0828 31.7118 19.3545 31.7118 21.6845V27.2154H39.8839L38.577 35.7334H31.7118V53.8302H48.0193C49.5319 53.8302 50.9825 53.2294 52.052 52.1598C53.1216 51.0903 53.7225 49.6396 53.7225 48.1271V6.30376C53.7225 4.79119 53.1216 3.34056 52.052 2.27101C50.9825 1.20145 49.5319 0.600586 48.0193 0.600586Z" fill="white"/>
</svg>
