<svg width="54" height="54" viewBox="0 0 54 54" fill="none" xmlns="http://www.w3.org/2000/svg">
<path d="M27.391 13.6296C19.8385 13.6296 13.7467 19.7214 13.7467 27.2739C13.7467 34.8264 19.8385 40.9183 27.391 40.9183C34.9435 40.9183 41.0354 34.8264 41.0354 27.2739C41.0354 19.7214 34.9435 13.6296 27.391 13.6296ZM27.391 36.1446C22.5104 36.1446 18.5204 32.1664 18.5204 27.2739C18.5204 22.3814 22.4985 18.4033 27.391 18.4033C32.2835 18.4033 36.2617 22.3814 36.2617 27.2739C36.2617 32.1664 32.2717 36.1446 27.391 36.1446ZM44.776 13.0714C44.776 14.8408 43.351 16.2539 41.5935 16.2539C39.8242 16.2539 38.411 14.8289 38.411 13.0714C38.411 11.3139 39.836 9.88894 41.5935 9.88894C43.351 9.88894 44.776 11.3139 44.776 13.0714ZM53.8129 16.3014C53.611 12.0383 52.6373 8.26207 49.5141 5.15082C46.4029 2.03957 42.6267 1.06582 38.3635 0.85207C33.9698 0.602695 20.8004 0.602695 16.4067 0.85207C12.1554 1.05395 8.37917 2.02769 5.25604 5.13894C2.13292 8.25019 1.17104 12.0264 0.957295 16.2896C0.70792 20.6833 0.70792 33.8527 0.957295 38.2464C1.15917 42.5095 2.13292 46.2858 5.25604 49.397C8.37917 52.5083 12.1435 53.482 16.4067 53.6958C20.8004 53.9452 33.9698 53.9452 38.3635 53.6958C42.6267 53.4939 46.4029 52.5202 49.5141 49.397C52.6254 46.2858 53.5991 42.5095 53.8129 38.2464C54.0623 33.8527 54.0623 20.6952 53.8129 16.3014ZM48.1367 42.9608C47.2104 45.2883 45.4173 47.0814 43.0779 48.0195C39.5748 49.4089 31.2623 49.0883 27.391 49.0883C23.5198 49.0883 15.1954 49.397 11.7042 48.0195C9.37667 47.0933 7.58354 45.3002 6.64542 42.9608C5.25604 39.4577 5.57667 31.1452 5.57667 27.2739C5.57667 23.4027 5.26792 15.0783 6.64542 11.5871C7.57167 9.25957 9.36479 7.46644 11.7042 6.52832C15.2073 5.13894 23.5198 5.45957 27.391 5.45957C31.2623 5.45957 39.5867 5.15082 43.0779 6.52832C45.4054 7.45457 47.1985 9.24769 48.1367 11.5871C49.526 15.0902 49.2054 23.4027 49.2054 27.2739C49.2054 31.1452 49.526 39.4695 48.1367 42.9608Z" fill="white"/>
</svg>
