<svg width="32" height="32" viewBox="0 0 32 32" fill="none" xmlns="http://www.w3.org/2000/svg">
<path d="M7.46482 31.0979H1.10739V10.6584H7.46482V31.0979ZM4.25192 7.92407C2.2695 7.92407 0.628878 6.21509 0.628878 4.16431C0.628878 2.18188 2.2695 0.54126 4.25192 0.54126C6.30271 0.54126 7.94333 2.18188 7.94333 4.16431C7.94333 6.21509 6.30271 7.92407 4.25192 7.92407ZM31.1855 31.0979H24.8965V21.1858C24.8965 18.7932 24.8281 15.7854 21.5468 15.7854C18.2656 15.7854 17.7871 18.3147 17.7871 20.9807V31.0979H11.4297V10.6584H17.5136V13.4612H17.582C18.4707 11.8889 20.5215 10.1799 23.5976 10.1799C30.0234 10.1799 31.2539 14.4182 31.2539 19.887V31.0979H31.1855Z" fill="white"/>
</svg>
