<svg width="54" height="54" viewBox="0 0 54 54" fill="none" xmlns="http://www.w3.org/2000/svg">
<path d="M49.4944 0.600586H3.85713C1.76597 0.600586 0.0668945 2.32342 0.0668945 4.43835V49.9925C0.0668945 52.1074 1.76597 53.8302 3.85713 53.8302H49.4944C51.5856 53.8302 53.2966 52.1074 53.2966 49.9925V4.43835C53.2966 2.32342 51.5856 0.600586 49.4944 0.600586ZM16.1546 46.226H8.26521V20.8231H16.1665V46.226H16.1546ZM12.2099 17.3537C9.67913 17.3537 7.63549 15.2982 7.63549 12.7792C7.63549 10.2603 9.67913 8.20482 12.2099 8.20482C14.7288 8.20482 16.7843 10.2603 16.7843 12.7792C16.7843 15.31 14.7407 17.3537 12.2099 17.3537ZM45.728 46.226H37.8386V33.8691C37.8386 30.9225 37.7792 27.1322 33.7394 27.1322C29.6284 27.1322 28.9986 30.3403 28.9986 33.6553V46.226H21.1092V20.8231H28.6778V24.2925H28.7848C29.8422 22.2964 32.4206 20.1934 36.2583 20.1934C44.2428 20.1934 45.728 25.4569 45.728 32.3008V46.226Z" fill="white"/>
</svg>
