<svg width="31" height="24" viewBox="0 0 31 24" fill="none" xmlns="http://www.w3.org/2000/svg">
<path d="M30.3749 7.96401C30.6051 7.78102 30.9475 7.95221 30.9475 8.24144V20.3127C30.9475 21.8769 29.6784 23.146 28.1141 23.146H3.55845C1.9942 23.146 0.725098 21.8769 0.725098 20.3127V8.24735C0.725098 7.95221 1.06156 7.78693 1.29767 7.96991C2.6199 8.997 4.37304 10.3015 10.3939 14.6755C11.6394 15.5845 13.7408 17.4971 15.8363 17.4852C17.9436 17.503 20.0863 15.5491 21.2846 14.6755C27.3055 10.3015 29.0527 8.9911 30.3749 7.96401ZM15.8363 15.5904C17.2057 15.6141 19.1773 13.8668 20.169 13.1467C28.002 7.46227 28.5982 6.96644 30.4044 5.54976C30.7468 5.28414 30.9475 4.87094 30.9475 4.43413V3.3126C30.9475 1.74835 29.6784 0.479248 28.1141 0.479248H3.55845C1.9942 0.479248 0.725098 1.74835 0.725098 3.3126V4.43413C0.725098 4.87094 0.925793 5.27823 1.26816 5.54976C3.07442 6.96053 3.6706 7.46227 11.5036 13.1467C12.4953 13.8668 14.4668 15.6141 15.8363 15.5904Z" fill="white"/>
</svg>
