<svg width="54" height="40" viewBox="0 0 54 40" fill="none" xmlns="http://www.w3.org/2000/svg">
<path d="M52.5657 13.2354C52.9712 12.9131 53.5741 13.2146 53.5741 13.724V34.9847C53.5741 37.7397 51.3389 39.975 48.5839 39.975H5.33476C2.57971 39.975 0.344482 37.7397 0.344482 34.9847V13.7344C0.344482 13.2146 0.937078 12.9235 1.35294 13.2458C3.68173 15.0548 6.76947 17.3524 17.3738 25.0561C19.5675 26.6572 23.2686 30.0256 26.9593 30.0048C30.6708 30.036 34.4447 26.5948 36.5552 25.0561C47.1596 17.3524 50.2369 15.0444 52.5657 13.2354ZM26.9593 26.6676C29.3713 26.7092 32.8437 23.6318 34.5903 22.3634C48.3863 12.3517 49.4364 11.4784 52.6177 8.98326C53.2207 8.51542 53.5741 7.78767 53.5741 7.01833V5.04302C53.5741 2.28796 51.3389 0.0527344 48.5839 0.0527344H5.33476C2.57971 0.0527344 0.344482 2.28796 0.344482 5.04302V7.01833C0.344482 7.78767 0.697961 8.50502 1.30095 8.98326C4.48226 11.468 5.5323 12.3517 19.3283 22.3634C21.0749 23.6318 24.5473 26.7092 26.9593 26.6676Z" fill="white"/>
</svg>
