<svg width="36" height="30" viewBox="0 0 36 30" fill="none" xmlns="http://www.w3.org/2000/svg">
<path d="M31.6509 7.86353C31.6509 8.20532 31.6509 8.47876 31.6509 8.82056C31.6509 18.3225 24.4731 29.1917 11.2798 29.1917C7.17819 29.1917 3.41843 28.0295 0.273897 25.9788C0.820772 26.0471 1.36765 26.1155 1.98288 26.1155C5.33249 26.1155 8.40866 24.9534 10.8696 23.0393C7.72507 22.9709 5.05905 20.9202 4.17038 18.0491C4.6489 18.1174 5.05905 18.1858 5.53757 18.1858C6.1528 18.1858 6.8364 18.0491 7.38327 17.9124C4.10202 17.2288 1.64108 14.3577 1.64108 10.8713V10.803C2.59812 11.3499 3.76023 11.6233 4.92233 11.6917C2.93991 10.3928 1.70944 8.20532 1.70944 5.74438C1.70944 4.3772 2.05124 3.14673 2.66648 2.12134C6.22116 6.42798 11.5532 9.29907 17.5005 9.64087C17.3637 9.09399 17.2954 8.54712 17.2954 8.00024C17.2954 4.0354 20.5083 0.82251 24.4731 0.82251C26.5239 0.82251 28.3696 1.64282 29.7368 3.07837C31.3091 2.73657 32.8813 2.12134 34.2485 1.30103C33.7016 3.01001 32.6079 4.3772 31.104 5.26587C32.5395 5.12915 33.9751 4.71899 35.2055 4.17212C34.2485 5.60767 33.018 6.83813 31.6509 7.86353Z" fill="white"/>
</svg>
