<svg width="55" height="54" viewBox="0 0 55 54" fill="none" xmlns="http://www.w3.org/2000/svg">
<path d="M48.4452 0.600586H6.62188C3.47325 0.600586 0.918701 3.15513 0.918701 6.30376V48.1271C0.918701 51.2757 3.47325 53.8302 6.62188 53.8302H48.4452C51.5938 53.8302 54.1484 51.2757 54.1484 48.1271V6.30376C54.1484 3.15513 51.5938 0.600586 48.4452 0.600586ZM42.6351 19.4686C42.6588 19.8013 42.6588 20.1459 42.6588 20.4785C42.6588 30.7799 34.817 42.6496 20.4877 42.6496C16.0678 42.6496 11.9686 41.3664 8.52294 39.1564C9.15267 39.2277 9.75863 39.2515 10.4002 39.2515C14.0479 39.2515 17.3985 38.0158 20.0719 35.9246C16.65 35.8534 13.7746 33.6077 12.7884 30.5185C13.9885 30.6967 15.0697 30.6967 16.3054 30.3759C12.7409 29.6511 10.0675 26.5144 10.0675 22.7242V22.6291C11.1013 23.2113 12.3132 23.5678 13.5845 23.6153C12.5157 22.9043 11.6395 21.9398 11.0341 20.8078C10.4287 19.6759 10.113 18.4116 10.1151 17.1279C10.1151 15.6784 10.4953 14.3476 11.1725 13.1951C15.0103 17.924 20.7729 21.0132 27.2365 21.3459C26.1315 16.0586 30.0881 11.7693 34.8407 11.7693C37.0864 11.7693 39.1062 12.708 40.532 14.2288C42.2905 13.8961 43.9777 13.2426 45.4748 12.3515C44.8926 14.1575 43.6688 15.6784 42.0529 16.6408C43.6213 16.4744 45.1421 16.0348 46.5441 15.4288C45.4867 16.9853 44.1559 18.3636 42.6351 19.4686Z" fill="white"/>
</svg>
